<svg width="817" height="114" viewBox="0 0 817 114" fill="none" xmlns="http://www.w3.org/2000/svg">
<path d="M8.12 25.32C12.536 25.32 15.192 22.632 15.192 17.128V8.872C15.192 3.4 12.536 0.679998 8.12 0.679998C3.704 0.679998 1.048 3.4 1.048 8.872L1.048 17.128C1.048 22.632 3.704 25.32 8.12 25.32ZM8.12 22.376C5.688 22.376 4.248 21 4.248 17.128L4.248 8.872C4.248 5.032 5.72 3.624 8.12 3.624C10.552 3.624 11.992 5.032 11.992 8.872L11.992 17.128C11.992 21 10.52 22.376 8.12 22.376ZM30.978 15.368H34.306C33.922 11.368 30.626 8.68 26.402 8.68C21.826 8.68 18.434 12.104 18.434 17C18.434 21.896 21.826 25.32 26.402 25.32C30.754 25.32 34.114 22.504 34.37 18.28H31.042C30.722 20.936 28.738 22.376 26.402 22.376C23.682 22.376 21.634 20.232 21.634 17C21.634 13.768 23.682 11.624 26.402 11.624C28.706 11.624 30.658 12.936 30.978 15.368ZM43.9288 25L43.9288 11.944H49.1128V9L35.5448 9V11.944H40.7288L40.7288 25H43.9288ZM56.5073 25.32C58.8113 25.32 60.8593 24.424 61.9153 22.312V25H65.0513V13.8C65.0513 10.088 61.8513 8.68 58.3953 8.68C54.8753 8.68 51.5473 10.248 51.5473 14.376L54.8753 14.376C54.8753 12.296 56.3153 11.24 58.3953 11.24C60.3473 11.24 61.8513 12.104 61.8513 13.672C61.8513 17.32 51.0673 13.864 51.0673 20.776C51.0673 23.944 53.6593 25.32 56.5073 25.32ZM54.3313 20.584C54.3313 17.896 59.1953 18.568 61.9153 17.256V18.408C61.9153 21.192 59.6113 22.632 57.1473 22.632C55.5153 22.632 54.3313 21.96 54.3313 20.584ZM69.493 25H77.685C81.013 25 83.061 23.464 83.061 20.392C83.061 18.376 81.941 17.096 80.181 16.52C81.557 15.944 82.389 14.856 82.389 13.16C82.389 10.376 80.373 9 77.429 9H69.493V25ZM76.501 11.432C78.485 11.432 79.317 12.072 79.317 13.512C79.317 14.856 78.485 15.592 76.501 15.592H72.565V11.432H76.501ZM77.141 18.024C78.933 18.024 79.861 18.824 79.861 20.296C79.861 21.768 78.933 22.568 77.141 22.568H72.565V18.024H77.141ZM100.108 19.624C100.108 16.456 97.8358 14.28 93.9638 14.28H90.4118V9H87.2118V25H93.9958C97.9958 25 100.108 22.792 100.108 19.624ZM93.7078 16.968C95.8838 16.968 96.9078 17.832 96.9078 19.592C96.9078 21.32 95.8838 22.312 93.7078 22.312H90.4118V16.968H93.7078ZM108.46 25V11.944H113.644V9L100.076 9V11.944H105.26V25H108.46ZM130.864 18.088C130.896 17.736 130.928 17.384 130.928 17C130.928 12.104 127.6 8.68 123.056 8.68C118.512 8.68 115.184 12.104 115.184 17C115.184 21.896 118.512 25.32 123.056 25.32C126.736 25.32 129.52 23.496 130.512 20.2H127.056C126.416 21.64 125.136 22.504 123.184 22.504C120.496 22.504 118.704 20.872 118.32 18.088L130.864 18.088ZM123.056 11.496C125.616 11.496 127.376 13.096 127.76 15.784L118.352 15.784C118.736 13.096 120.464 11.496 123.056 11.496ZM145.836 15.656V18.056H148.364C150.188 18.056 151.308 18.888 151.308 20.392C151.308 21.768 150.316 22.792 147.82 22.792C145.196 22.792 143.884 21.512 143.884 19.336H140.684C140.684 23.144 143.308 25.32 147.788 25.32C152.172 25.32 154.508 23.496 154.508 20.488C154.508 18.696 153.548 17.48 151.756 16.872C153.324 16.2 154.124 14.824 154.124 13.256C154.124 10.76 152.044 8.68 147.788 8.68C143.276 8.68 140.94 11.304 140.94 14.44H144.14C144.14 12.392 145.452 11.24 147.788 11.24C149.996 11.24 151.052 12.168 151.052 13.512C151.052 14.92 150.124 15.656 148.364 15.656H145.836ZM162.632 25.32C164.936 25.32 166.984 24.424 168.04 22.312V25H171.176V13.8C171.176 10.088 167.976 8.68 164.52 8.68C161 8.68 157.672 10.248 157.672 14.376H161C161 12.296 162.44 11.24 164.52 11.24C166.472 11.24 167.976 12.104 167.976 13.672C167.976 17.32 157.192 13.864 157.192 20.776C157.192 23.944 159.784 25.32 162.632 25.32ZM160.456 20.584C160.456 17.896 165.32 18.568 168.04 17.256V18.408C168.04 21.192 165.736 22.632 163.272 22.632C161.64 22.632 160.456 21.96 160.456 20.584ZM175.522 13.864C175.522 16.968 177.986 18.632 180.674 18.792L174.402 25H178.146L185.058 17.992H185.09V25H188.29V9L181.41 9C178.21 9 175.522 10.376 175.522 13.864ZM181.954 16.52C179.938 16.52 178.722 15.72 178.722 13.896C178.722 12.264 179.938 11.432 181.954 11.432H185.09V16.52H181.954ZM193.024 25H201.216C204.544 25 206.592 23.464 206.592 20.392C206.592 18.376 205.472 17.096 203.712 16.52C205.088 15.944 205.92 14.856 205.92 13.16C205.92 10.376 203.904 9 200.96 9L193.024 9V25ZM200.032 11.432C202.016 11.432 202.848 12.072 202.848 13.512C202.848 14.856 202.016 15.592 200.032 15.592H196.096V11.432H200.032ZM200.672 18.024C202.464 18.024 203.392 18.824 203.392 20.296C203.392 21.768 202.464 22.568 200.672 22.568H196.096V18.024H200.672ZM213.943 9H210.743V25H213.943V16.584L221.591 25H225.655L217.559 16.296L225.079 9H220.823L213.943 16.104V9ZM235.38 26.792L241.684 9H238.484L233.876 22.408L229.236 9H226.036L232.372 26.76C231.348 29.256 230.26 30.44 228.244 30.44C227.476 30.44 226.74 30.28 226.132 30.088V32.904C226.74 33.096 227.636 33.256 228.532 33.256C232.468 33.256 234.036 30.6 235.38 26.792ZM254.193 25V18.376H261.873V25L265.073 25V9H261.873V15.464H254.193V9L250.993 9V25H254.193ZM274.414 25.32C276.718 25.32 278.766 24.424 279.822 22.312V25H282.958V13.8C282.958 10.088 279.758 8.68 276.302 8.68C272.782 8.68 269.454 10.248 269.454 14.376H272.782C272.782 12.296 274.222 11.24 276.302 11.24C278.254 11.24 279.758 12.104 279.758 13.672C279.758 17.32 268.974 13.864 268.974 20.776C268.974 23.944 271.566 25.32 274.414 25.32ZM272.238 20.584C272.238 17.896 277.102 18.568 279.822 17.256V18.408C279.822 21.192 277.518 22.632 275.054 22.632C273.422 22.632 272.238 21.96 272.238 20.584ZM297.974 25V11.944H305.206V25H308.406V9L294.774 9V25L297.974 25ZM316.381 33V22.6C317.629 24.296 319.485 25.32 321.629 25.32C326.013 25.32 329.309 21.896 329.309 17C329.309 12.104 326.013 8.68 321.629 8.68C319.485 8.68 317.629 9.704 316.381 11.4V9H313.181V33L316.381 33ZM321.245 22.376C318.461 22.376 316.381 20.232 316.381 17C316.381 13.768 318.461 11.624 321.245 11.624C324.029 11.624 326.109 13.768 326.109 17C326.109 20.232 324.029 22.376 321.245 22.376ZM339.78 25.32C344.42 25.32 347.876 21.896 347.876 17C347.876 12.104 344.42 8.68 339.78 8.68C335.14 8.68 331.684 12.104 331.684 17C331.684 21.896 335.14 25.32 339.78 25.32ZM339.78 22.376C336.996 22.376 334.884 20.232 334.884 17C334.884 13.768 336.996 11.624 339.78 11.624C342.564 11.624 344.676 13.768 344.676 17C344.676 20.232 342.564 22.376 339.78 22.376ZM359.329 8.936C356.577 8.936 354.625 10.152 353.665 11.912V11.304C353.665 7.176 354.753 5.864 358.209 5.384L361.697 4.872C365.121 4.424 366.305 3.656 366.369 0.999998H363.169C363.137 1.448 362.913 1.864 361.793 2.024L357.921 2.568C352.993 3.304 350.625 5.256 350.625 11.528V17.192C350.625 21.96 354.145 25.32 358.72 25.32C363.329 25.32 366.817 21.96 366.817 17.128C366.817 12.296 363.361 8.936 359.329 8.936ZM358.72 22.376C355.873 22.376 353.825 20.264 353.825 17.128C353.825 14.024 355.873 11.88 358.72 11.88C361.601 11.88 363.617 14.088 363.617 17.128C363.617 20.2 361.601 22.376 358.72 22.376ZM373.568 25V18.376H381.248V25H384.448V9H381.248V15.464H373.568V9H370.368V25H373.568ZM396.093 25.32C400.733 25.32 404.189 21.896 404.189 17C404.189 12.104 400.733 8.68 396.093 8.68C391.453 8.68 387.997 12.104 387.997 17C387.997 21.896 391.453 25.32 396.093 25.32ZM396.093 22.376C393.309 22.376 391.197 20.232 391.197 17C391.197 13.768 393.309 11.624 396.093 11.624C398.877 11.624 400.989 13.768 400.989 17C400.989 20.232 398.877 22.376 396.093 22.376ZM422.239 18.088C422.271 17.736 422.303 17.384 422.303 17C422.303 12.104 418.975 8.68 414.431 8.68C409.887 8.68 406.559 12.104 406.559 17C406.559 21.896 409.887 25.32 414.431 25.32C418.111 25.32 420.895 23.496 421.887 20.2H418.431C417.791 21.64 416.511 22.504 414.559 22.504C411.871 22.504 410.079 20.872 409.695 18.088H422.239ZM414.431 11.496C416.991 11.496 418.751 13.096 419.135 15.784H409.727C410.111 13.096 411.839 11.496 414.431 11.496ZM437.211 15.656V18.056L439.739 18.056C441.563 18.056 442.683 18.888 442.683 20.392C442.683 21.768 441.691 22.792 439.195 22.792C436.571 22.792 435.259 21.512 435.259 19.336H432.059C432.059 23.144 434.683 25.32 439.163 25.32C443.547 25.32 445.883 23.496 445.883 20.488C445.883 18.696 444.923 17.48 443.131 16.872C444.699 16.2 445.499 14.824 445.499 13.256C445.499 10.76 443.419 8.68 439.163 8.68C434.651 8.68 432.315 11.304 432.315 14.44H435.515C435.515 12.392 436.827 11.24 439.163 11.24C441.371 11.24 442.427 12.168 442.427 13.512C442.427 14.92 441.499 15.656 439.739 15.656L437.211 15.656ZM454.007 25.32C456.311 25.32 458.359 24.424 459.415 22.312V25H462.551V13.8C462.551 10.088 459.351 8.68 455.895 8.68C452.375 8.68 449.047 10.248 449.047 14.376H452.375C452.375 12.296 453.815 11.24 455.895 11.24C457.847 11.24 459.351 12.104 459.351 13.672C459.351 17.32 448.567 13.864 448.567 20.776C448.567 23.944 451.159 25.32 454.007 25.32ZM451.831 20.584C451.831 17.896 456.695 18.568 459.415 17.256V18.408C459.415 21.192 457.111 22.632 454.647 22.632C453.015 22.632 451.831 21.96 451.831 20.584ZM470.193 25V18.376L477.873 18.376V25H481.073V9H477.873V15.464L470.193 15.464V9H466.993V25H470.193ZM485.46 13.864C485.46 16.968 487.924 18.632 490.612 18.792L484.34 25H488.084L494.996 17.992H495.028V25H498.228V9H491.348C488.148 9 485.46 10.376 485.46 13.864ZM491.892 16.52C489.876 16.52 488.66 15.72 488.66 13.896C488.66 12.264 489.876 11.432 491.892 11.432H495.028V16.52H491.892ZM509.554 25V11.944H514.738V9H501.17V11.944H506.354V25L509.554 25ZM532.145 25V9H528.081L520.753 21.768V9H517.681V25H521.745L529.073 12.232V25H532.145ZM551.364 18.088C551.396 17.736 551.428 17.384 551.428 17C551.428 12.104 548.1 8.68 543.556 8.68C539.012 8.68 535.684 12.104 535.684 17C535.684 21.896 539.012 25.32 543.556 25.32C547.236 25.32 550.02 23.496 551.012 20.2H547.556C546.916 21.64 545.636 22.504 543.684 22.504C540.996 22.504 539.204 20.872 538.82 18.088L551.364 18.088ZM543.556 11.496C546.116 11.496 547.876 13.096 548.26 15.784L538.852 15.784C539.236 13.096 540.964 11.496 543.556 11.496ZM557.913 23.464C557.913 21.96 556.953 21.064 555.737 21.064C554.489 21.064 553.593 21.992 553.593 23.208C553.593 24.36 554.457 25.288 555.673 25.32C555.353 26.504 554.713 27.72 553.849 29.16H555.673C557.016 27.112 557.913 25.032 557.913 23.464ZM579.219 25L583.699 11.176V25H586.899V9L581.587 9L577.619 22.184L573.651 9L568.243 9V25H571.187V11.176L575.635 25L579.219 25ZM604.545 19.624C604.545 16.456 602.273 14.28 598.401 14.28H594.849V9H591.649V25H598.433C602.433 25 604.545 22.792 604.545 19.624ZM610.177 25V9H606.977V25H610.177ZM598.145 16.968C600.321 16.968 601.345 17.832 601.345 19.592C601.345 21.32 600.321 22.312 598.145 22.312H594.849V16.968H598.145ZM633.634 15.368H636.962C636.578 11.368 633.282 8.68 629.058 8.68C624.482 8.68 621.09 12.104 621.09 17C621.09 21.896 624.482 25.32 629.058 25.32C633.41 25.32 636.77 22.504 637.026 18.28H633.698C633.378 20.936 631.394 22.376 629.058 22.376C626.338 22.376 624.29 20.232 624.29 17C624.29 13.768 626.338 11.624 629.058 11.624C631.362 11.624 633.314 12.936 633.634 15.368ZM640.587 25L648.779 25C652.107 25 654.155 23.464 654.155 20.392C654.155 18.376 653.035 17.096 651.275 16.52C652.651 15.944 653.483 14.856 653.483 13.16C653.483 10.376 651.467 9 648.523 9H640.587V25ZM647.595 11.432C649.579 11.432 650.411 12.072 650.411 13.512C650.411 14.856 649.579 15.592 647.595 15.592H643.659V11.432H647.595ZM648.235 18.024C650.027 18.024 650.955 18.824 650.955 20.296C650.955 21.768 650.027 22.568 648.235 22.568L643.659 22.568V18.024L648.235 18.024ZM657.585 13.864C657.585 16.968 660.049 18.632 662.737 18.792L656.465 25H660.209L667.121 17.992H667.153V25H670.353V9H663.473C660.273 9 657.585 10.376 657.585 13.864ZM664.017 16.52C662.001 16.52 660.785 15.72 660.785 13.896C660.785 12.264 662.001 11.432 664.017 11.432H667.153V16.52H664.017ZM687.279 9H684.079V16.04L677.935 9L673.679 9L680.559 16.296L673.103 25H677.135L684.079 16.648V25H687.279V16.584L694.223 25H698.159L690.831 16.296L697.551 9H693.455L687.279 16.072V9ZM714.427 18.088C714.458 17.736 714.491 17.384 714.491 17C714.491 12.104 711.163 8.68 706.619 8.68C702.075 8.68 698.747 12.104 698.747 17C698.747 21.896 702.075 25.32 706.619 25.32C710.299 25.32 713.083 23.496 714.075 20.2H710.619C709.979 21.64 708.699 22.504 706.747 22.504C704.059 22.504 702.266 20.872 701.883 18.088H714.427ZM706.619 11.496C709.179 11.496 710.939 13.096 711.323 15.784H701.915C702.299 13.096 704.027 11.496 706.619 11.496ZM729.032 25L733.512 11.176V25H736.712V9H731.4L727.432 22.184L723.464 9H718.056V25H721V11.176L725.448 25H729.032ZM752.822 15.368L756.15 15.368C755.766 11.368 752.47 8.68 748.246 8.68C743.67 8.68 740.278 12.104 740.278 17C740.278 21.896 743.67 25.32 748.246 25.32C752.598 25.32 755.958 22.504 756.214 18.28H752.886C752.566 20.936 750.582 22.376 748.246 22.376C745.526 22.376 743.478 20.232 743.478 17C743.478 13.768 745.526 11.624 748.246 11.624C750.55 11.624 752.502 12.936 752.822 15.368ZM759.178 13.864C759.178 16.968 761.642 18.632 764.33 18.792L758.058 25H761.802L768.714 17.992H768.746V25H771.946V9H765.066C761.866 9 759.178 10.376 759.178 13.864ZM765.61 16.52C763.594 16.52 762.378 15.72 762.378 13.896C762.378 12.264 763.594 11.432 765.61 11.432H768.746V16.52H765.61ZM12.728 55.368H16.056C15.672 51.368 12.376 48.68 8.152 48.68C3.576 48.68 0.184 52.104 0.184 57C0.184 61.896 3.576 65.32 8.152 65.32C12.504 65.32 15.864 62.504 16.12 58.28H12.792C12.472 60.936 10.488 62.376 8.152 62.376C5.432 62.376 3.384 60.232 3.384 57C3.384 53.768 5.432 51.624 8.152 51.624C10.456 51.624 12.408 52.936 12.728 55.368ZM27.0555 65H35.2475C38.5755 65 40.6235 63.464 40.6235 60.392C40.6235 58.376 39.5035 57.096 37.7435 56.52C39.1195 55.944 39.9515 54.856 39.9515 53.16C39.9515 50.376 37.9355 49 34.9915 49L27.0555 49L27.0555 65ZM34.0635 51.432C36.0475 51.432 36.8795 52.072 36.8795 53.512C36.8795 54.856 36.0475 55.592 34.0635 55.592H30.1275L30.1275 51.432H34.0635ZM34.7035 58.024C36.4955 58.024 37.4235 58.824 37.4235 60.296C37.4235 61.768 36.4955 62.568 34.7035 62.568H30.1275V58.024H34.7035ZM49.2573 65.32C51.5613 65.32 53.6093 64.424 54.6653 62.312V65H57.8013V53.8C57.8013 50.088 54.6013 48.68 51.1453 48.68C47.6253 48.68 44.2973 50.248 44.2973 54.376H47.6253C47.6253 52.296 49.0653 51.24 51.1453 51.24C53.0973 51.24 54.6013 52.104 54.6013 53.672C54.6013 57.32 43.8173 53.864 43.8173 60.776C43.8173 63.944 46.4093 65.32 49.2573 65.32ZM47.0813 60.584C47.0813 57.896 51.9453 58.568 54.6653 57.256V58.408C54.6653 61.192 52.3613 62.632 49.8973 62.632C48.2653 62.632 47.0813 61.96 47.0813 60.584ZM73.219 65L77.699 51.176V65H80.899V49H75.587L71.619 62.184L67.651 49H62.243V65H65.187V51.176L69.635 65H73.219ZM100.113 65V49H96.0493L88.7213 61.768V49H85.6493V65H89.7133L97.0413 52.232V65H100.113ZM108.069 63.464C108.069 61.96 107.109 61.064 105.893 61.064C104.645 61.064 103.749 61.992 103.749 63.208C103.749 64.36 104.613 65.288 105.829 65.32C105.509 66.504 104.869 67.72 104.005 69.16H105.829C107.173 67.112 108.069 65.032 108.069 63.464ZM121.599 65V51.944H128.831V65H132.031V49H118.399V65H121.599ZM143.718 65.32C148.358 65.32 151.814 61.896 151.814 57C151.814 52.104 148.358 48.68 143.718 48.68C139.078 48.68 135.622 52.104 135.622 57C135.622 61.896 139.078 65.32 143.718 65.32ZM143.718 62.376C140.934 62.376 138.822 60.232 138.822 57C138.822 53.768 140.934 51.624 143.718 51.624C146.502 51.624 148.614 53.768 148.614 57C148.614 60.232 146.502 62.376 143.718 62.376ZM166.344 65L170.824 51.176V65H174.024V49H168.712L164.744 62.184L160.776 49H155.368V65H158.312V51.176L162.76 65H166.344ZM185.686 65.32C190.326 65.32 193.782 61.896 193.782 57C193.782 52.104 190.326 48.68 185.686 48.68C181.046 48.68 177.59 52.104 177.59 57C177.59 61.896 181.046 65.32 185.686 65.32ZM185.686 62.376C182.902 62.376 180.79 60.232 180.79 57C180.79 53.768 182.902 51.624 185.686 51.624C188.47 51.624 190.582 53.768 190.582 57C190.582 60.232 188.47 62.376 185.686 62.376ZM208.685 49H205.485V56.04L199.341 49H195.085L201.965 56.296L194.509 65H198.541L205.485 56.648V65H208.685V56.584L215.629 65H219.565L212.237 56.296L218.957 49H214.861L208.685 56.072V49ZM235.833 58.088C235.865 57.736 235.897 57.384 235.897 57C235.897 52.104 232.569 48.68 228.025 48.68C223.481 48.68 220.153 52.104 220.153 57C220.153 61.896 223.481 65.32 228.025 65.32C231.705 65.32 234.489 63.496 235.481 60.2H232.025C231.385 61.64 230.105 62.504 228.153 62.504C225.465 62.504 223.673 60.872 223.289 58.088H235.833ZM228.025 51.496C230.585 51.496 232.345 53.096 232.729 55.784H223.321C223.705 53.096 225.433 51.496 228.025 51.496ZM250.438 65L254.918 51.176V65H258.118V49H252.806L248.838 62.184L244.87 49L239.462 49V65H242.406V51.176L246.854 65H250.438ZM281.603 55.368H284.931C284.547 51.368 281.251 48.68 277.027 48.68C272.451 48.68 269.059 52.104 269.059 57C269.059 61.896 272.451 65.32 277.027 65.32C281.379 65.32 284.739 62.504 284.995 58.28H281.667C281.347 60.936 279.363 62.376 277.027 62.376C274.307 62.376 272.259 60.232 272.259 57C272.259 53.768 274.307 51.624 277.027 51.624C279.331 51.624 281.283 52.936 281.603 55.368ZM295.931 65H304.123C307.451 65 309.499 63.464 309.499 60.392C309.499 58.376 308.379 57.096 306.619 56.52C307.995 55.944 308.827 54.856 308.827 53.16C308.827 50.376 306.811 49 303.867 49H295.931V65ZM302.939 51.432C304.923 51.432 305.755 52.072 305.755 53.512C305.755 54.856 304.923 55.592 302.939 55.592H299.003V51.432H302.939ZM303.579 58.024C305.371 58.024 306.299 58.824 306.299 60.296C306.299 61.768 305.371 62.568 303.579 62.568H299.003V58.024H303.579ZM326.545 59.624C326.545 56.456 324.273 54.28 320.401 54.28H316.849V49L313.649 49V65H320.433C324.433 65 326.545 62.792 326.545 59.624ZM332.177 65V49H328.977V65H332.177ZM320.145 56.968C322.321 56.968 323.345 57.832 323.345 59.592C323.345 61.32 322.321 62.312 320.145 62.312H316.849V56.968H320.145ZM344.547 48.936C341.795 48.936 339.843 50.152 338.883 51.912V51.304C338.883 47.176 339.971 45.864 343.427 45.384L346.915 44.872C350.339 44.424 351.523 43.656 351.587 41H348.387C348.355 41.448 348.131 41.864 347.011 42.024L343.139 42.568C338.211 43.304 335.843 45.256 335.843 51.528V57.192C335.843 61.96 339.363 65.32 343.939 65.32C348.547 65.32 352.035 61.96 352.035 57.128C352.035 52.296 348.579 48.936 344.547 48.936ZM343.939 62.376C341.091 62.376 339.043 60.264 339.043 57.128C339.043 54.024 341.091 51.88 343.939 51.88C346.819 51.88 348.835 54.088 348.835 57.128C348.835 60.2 346.819 62.376 343.939 62.376ZM362.499 65.32C367.139 65.32 370.595 61.896 370.595 57C370.595 52.104 367.139 48.68 362.499 48.68C357.859 48.68 354.403 52.104 354.403 57C354.403 61.896 357.859 65.32 362.499 65.32ZM362.499 62.376C359.715 62.376 357.603 60.232 357.603 57C357.603 53.768 359.715 51.624 362.499 51.624C365.283 51.624 367.395 53.768 367.395 57C367.395 60.232 365.283 62.376 362.499 62.376ZM377.349 73V62.6C378.597 64.296 380.453 65.32 382.597 65.32C386.981 65.32 390.277 61.896 390.277 57C390.277 52.104 386.981 48.68 382.597 48.68C380.453 48.68 378.597 49.704 377.349 51.4V49H374.149V73H377.349ZM382.213 62.376C379.429 62.376 377.349 60.232 377.349 57C377.349 53.768 379.429 51.624 382.213 51.624C384.997 51.624 387.077 53.768 387.077 57C387.077 60.232 384.997 62.376 382.213 62.376ZM400.749 65.32C405.389 65.32 408.845 61.896 408.845 57C408.845 52.104 405.389 48.68 400.749 48.68C396.109 48.68 392.653 52.104 392.653 57C392.653 61.896 396.109 65.32 400.749 65.32ZM400.749 62.376C397.965 62.376 395.853 60.232 395.853 57C395.853 53.768 397.965 51.624 400.749 51.624C403.533 51.624 405.645 53.768 405.645 57C405.645 60.232 403.533 62.376 400.749 62.376ZM423.375 65L427.855 51.176V65H431.055V49H425.743L421.775 62.184L417.807 49H412.399V65H415.343V51.176L419.791 65H423.375ZM446.381 65V58.376H454.061V65H457.26V49L454.061 49V55.464H446.381V49H443.181V65H446.381ZM466.601 65.32C468.905 65.32 470.953 64.424 472.009 62.312V65H475.145V53.8C475.145 50.088 471.945 48.68 468.489 48.68C464.969 48.68 461.641 50.248 461.641 54.376H464.969C464.969 52.296 466.409 51.24 468.489 51.24C470.441 51.24 471.945 52.104 471.945 53.672C471.945 57.32 461.161 53.864 461.161 60.776C461.161 63.944 463.753 65.32 466.601 65.32ZM464.425 60.584C464.425 57.896 469.289 58.568 472.009 57.256V58.408C472.009 61.192 469.705 62.632 467.241 62.632C465.609 62.632 464.425 61.96 464.425 60.584ZM482.787 65V51.944H490.019V65H493.219V49H479.587V65H482.787ZM501.193 73V62.6C502.441 64.296 504.297 65.32 506.441 65.32C510.825 65.32 514.121 61.896 514.121 57C514.121 52.104 510.825 48.68 506.441 48.68C504.297 48.68 502.441 49.704 501.193 51.4V49H497.993V73H501.193ZM506.057 62.376C503.273 62.376 501.193 60.232 501.193 57C501.193 53.768 503.273 51.624 506.057 51.624C508.841 51.624 510.921 53.768 510.921 57C510.921 60.232 508.841 62.376 506.057 62.376ZM522.289 65.32C524.593 65.32 526.641 64.424 527.697 62.312V65H530.833V53.8C530.833 50.088 527.633 48.68 524.177 48.68C520.657 48.68 517.329 50.248 517.329 54.376H520.657C520.657 52.296 522.097 51.24 524.177 51.24C526.129 51.24 527.633 52.104 527.633 53.672C527.633 57.32 516.849 53.864 516.849 60.776C516.849 63.944 519.441 65.32 522.289 65.32ZM520.113 60.584C520.113 57.896 524.977 58.568 527.697 57.256V58.408C527.697 61.192 525.393 62.632 522.929 62.632C521.297 62.632 520.113 61.96 520.113 60.584ZM535.274 65H543.466C546.794 65 548.842 63.464 548.842 60.392C548.842 58.376 547.722 57.096 545.962 56.52C547.338 55.944 548.17 54.856 548.17 53.16C548.17 50.376 546.154 49 543.21 49H535.274V65ZM542.282 51.432C544.266 51.432 545.098 52.072 545.098 53.512C545.098 54.856 544.266 55.592 542.282 55.592H538.346V51.432H542.282ZM542.922 58.024C544.714 58.024 545.642 58.824 545.642 60.296C545.642 61.768 544.714 62.568 542.922 62.568H538.346V58.024H542.922ZM566.299 65V49H554.459C554.427 56.2 554.203 58.952 553.819 60.328C553.499 61.544 552.795 62.056 551.931 62.056H551.675V65H552.251C554.811 65 556.219 63.944 556.891 59.944C557.147 58.216 557.307 55.688 557.371 51.944H563.099V65H566.299ZM585.52 58.088C585.552 57.736 585.584 57.384 585.584 57C585.584 52.104 582.256 48.68 577.712 48.68C573.168 48.68 569.84 52.104 569.84 57C569.84 61.896 573.168 65.32 577.712 65.32C581.392 65.32 584.176 63.496 585.168 60.2H581.712C581.072 61.64 579.792 62.504 577.84 62.504C575.152 62.504 573.36 60.872 572.976 58.088H585.52ZM577.712 51.496C580.272 51.496 582.032 53.096 582.416 55.784H573.008C573.392 53.096 575.12 51.496 577.712 51.496ZM592.349 65V58.376H600.029V65H603.229V49H600.029V55.464L592.349 55.464V49H589.149V65H592.349ZM622.426 65V49H618.362L611.034 61.768V49H607.962V65H612.026L619.354 52.232V65H622.426ZM626.803 53.864C626.803 56.968 629.267 58.632 631.955 58.792L625.683 65H629.427L636.339 57.992H636.371V65H639.571V49H632.691C629.491 49 626.803 50.376 626.803 53.864ZM633.235 56.52C631.219 56.52 630.003 55.72 630.003 53.896C630.003 52.264 631.219 51.432 633.235 51.432H636.371V56.52H633.235ZM666.145 65V49L662.081 49L654.753 61.768V49H651.681V65H655.745L663.073 52.232V65H666.145ZM684.835 65V51.944H690.019V49H676.451V51.944H681.635V65H684.835ZM696.162 73V62.6C697.41 64.296 699.266 65.32 701.41 65.32C705.794 65.32 709.09 61.896 709.09 57C709.09 52.104 705.794 48.68 701.41 48.68C699.266 48.68 697.41 49.704 696.162 51.4V49H692.962V73H696.162ZM701.026 62.376C698.242 62.376 696.162 60.232 696.162 57C696.162 53.768 698.242 51.624 701.026 51.624C703.81 51.624 705.89 53.768 705.89 57C705.89 60.232 703.81 62.376 701.026 62.376ZM727.145 58.088C727.177 57.736 727.209 57.384 727.209 57C727.209 52.104 723.881 48.68 719.337 48.68C714.793 48.68 711.465 52.104 711.465 57C711.465 61.896 714.793 65.32 719.337 65.32C723.017 65.32 725.801 63.496 726.793 60.2H723.337C722.697 61.64 721.417 62.504 719.465 62.504C716.777 62.504 714.985 60.872 714.601 58.088H727.145ZM719.337 51.496C721.897 51.496 723.657 53.096 724.041 55.784H714.633C715.017 53.096 716.745 51.496 719.337 51.496ZM733.974 65V58.376H741.654V65H744.854V49H741.654V55.464L733.974 55.464V49H730.774V65H733.974ZM764.083 58.088C764.115 57.736 764.147 57.384 764.147 57C764.147 52.104 760.819 48.68 756.275 48.68C751.731 48.68 748.403 52.104 748.403 57C748.403 61.896 751.731 65.32 756.275 65.32C759.955 65.32 762.739 63.496 763.731 60.2H760.275C759.635 61.64 758.355 62.504 756.403 62.504C753.715 62.504 751.923 60.872 751.539 58.088H764.083ZM756.275 51.496C758.835 51.496 760.595 53.096 760.979 55.784H751.571C751.955 53.096 753.683 51.496 756.275 51.496ZM770.912 73V62.6C772.16 64.296 774.016 65.32 776.16 65.32C780.544 65.32 783.84 61.896 783.84 57C783.84 52.104 780.544 48.68 776.16 48.68C774.016 48.68 772.16 49.704 770.912 51.4V49H767.712V73L770.912 73ZM775.776 62.376C772.992 62.376 770.912 60.232 770.912 57C770.912 53.768 772.992 51.624 775.776 51.624C778.56 51.624 780.64 53.768 780.64 57C780.64 60.232 778.56 62.376 775.776 62.376ZM792.007 65.32C794.311 65.32 796.359 64.424 797.415 62.312V65H800.551V53.8C800.551 50.088 797.351 48.68 793.895 48.68C790.375 48.68 787.047 50.248 787.047 54.376H790.375C790.375 52.296 791.815 51.24 793.895 51.24C795.847 51.24 797.351 52.104 797.351 53.672C797.351 57.32 786.567 53.864 786.567 60.776C786.567 63.944 789.159 65.32 792.007 65.32ZM789.831 60.584C789.831 57.896 794.695 58.568 797.415 57.256V58.408C797.415 61.192 795.111 62.632 792.647 62.632C791.015 62.632 789.831 61.96 789.831 60.584ZM808.225 63.464C808.225 61.96 807.265 61.064 806.049 61.064C804.801 61.064 803.905 61.992 803.905 63.208C803.905 64.36 804.769 65.288 805.985 65.32C805.665 66.504 805.025 67.72 804.161 69.16H805.985C807.329 67.112 808.225 65.032 808.225 63.464ZM12.728 95.368H16.056C15.672 91.368 12.376 88.68 8.152 88.68C3.576 88.68 0.184 92.104 0.184 97C0.184 101.896 3.576 105.32 8.152 105.32C12.504 105.32 15.864 102.504 16.12 98.28H12.792C12.472 100.936 10.488 102.376 8.152 102.376C5.432 102.376 3.384 100.232 3.384 97C3.384 93.768 5.432 91.624 8.152 91.624C10.456 91.624 12.408 92.936 12.728 95.368ZM30.2555 89H27.0555L27.0555 105H30.2555L30.2555 96.584L37.9035 105H41.9675L33.8715 96.296L41.3915 89H37.1355L30.2555 96.104V89ZM50.655 105.32C55.295 105.32 58.751 101.896 58.751 97C58.751 92.104 55.295 88.68 50.655 88.68C46.015 88.68 42.559 92.104 42.559 97C42.559 101.896 46.015 105.32 50.655 105.32ZM50.655 102.376C47.871 102.376 45.759 100.232 45.759 97C45.759 93.768 47.871 91.624 50.655 91.624C53.439 91.624 55.551 93.768 55.551 97C55.551 100.232 53.439 102.376 50.655 102.376ZM68.3038 105V91.944L73.4878 91.944V89L59.9198 89V91.944H65.1038V105H68.3038ZM83.1238 105.32C87.7638 105.32 91.2198 101.896 91.2198 97C91.2198 92.104 87.7638 88.68 83.1238 88.68C78.4838 88.68 75.0278 92.104 75.0278 97C75.0278 101.896 78.4838 105.32 83.1238 105.32ZM83.1238 102.376C80.3398 102.376 78.2278 100.232 78.2278 97C78.2278 93.768 80.3398 91.624 83.1238 91.624C85.9078 91.624 88.0198 93.768 88.0198 97C88.0198 100.232 85.9078 102.376 83.1238 102.376ZM97.9743 113V102.6C99.2223 104.296 101.078 105.32 103.222 105.32C107.606 105.32 110.902 101.896 110.902 97C110.902 92.104 107.606 88.68 103.222 88.68C101.078 88.68 99.2223 89.704 97.9743 91.4V89H94.7743V113H97.9743ZM102.838 102.376C100.054 102.376 97.9743 100.232 97.9743 97C97.9743 93.768 100.054 91.624 102.838 91.624C105.622 91.624 107.702 93.768 107.702 97C107.702 100.232 105.622 102.376 102.838 102.376ZM127.358 99.624C127.358 96.456 125.086 94.28 121.214 94.28H117.662V89H114.462V105H121.246C125.246 105 127.358 102.792 127.358 99.624ZM132.99 105L132.99 89H129.79L129.79 105H132.99ZM120.958 96.968C123.134 96.968 124.158 97.832 124.158 99.592C124.158 101.32 123.134 102.312 120.958 102.312H117.662V96.968H120.958ZM148.688 105L153.168 91.176V105H156.368L156.368 89H151.056L147.088 102.184L143.12 89H137.712L137.712 105H140.656V91.176L145.104 105H148.688ZM175.085 105V91.944H180.269L180.269 89H166.701L166.701 91.944H171.885V105H175.085ZM186.412 113V102.6C187.66 104.296 189.516 105.32 191.66 105.32C196.044 105.32 199.34 101.896 199.34 97C199.34 92.104 196.044 88.68 191.66 88.68C189.516 88.68 187.66 89.704 186.412 91.4L186.412 89H183.212L183.212 113H186.412ZM191.276 102.376C188.492 102.376 186.412 100.232 186.412 97C186.412 93.768 188.492 91.624 191.276 91.624C194.06 91.624 196.14 93.768 196.14 97C196.14 100.232 194.06 102.376 191.276 102.376ZM217.395 98.088C217.427 97.736 217.459 97.384 217.459 97C217.459 92.104 214.131 88.68 209.587 88.68C205.043 88.68 201.715 92.104 201.715 97C201.715 101.896 205.043 105.32 209.587 105.32C213.267 105.32 216.051 103.496 217.043 100.2H213.587C212.947 101.64 211.667 102.504 209.715 102.504C207.027 102.504 205.235 100.872 204.851 98.088L217.395 98.088ZM209.587 91.496C212.147 91.496 213.907 93.096 214.291 95.784L204.883 95.784C205.267 93.096 206.995 91.496 209.587 91.496ZM224.224 105V98.376H231.904V105H235.104L235.104 89H231.904L231.904 95.464H224.224L224.224 89H221.024L221.024 105H224.224ZM254.301 105L254.301 89H250.237L242.909 101.768L242.909 89H239.837L239.837 105H243.901L251.229 92.232V105H254.301ZM262.224 113V102.6C263.472 104.296 265.328 105.32 267.472 105.32C271.856 105.32 275.152 101.896 275.152 97C275.152 92.104 271.856 88.68 267.472 88.68C265.328 88.68 263.472 89.704 262.224 91.4V89H259.024V113H262.224ZM267.088 102.376C264.304 102.376 262.224 100.232 262.224 97C262.224 93.768 264.304 91.624 267.088 91.624C269.872 91.624 271.952 93.768 271.952 97C271.952 100.232 269.872 102.376 267.088 102.376ZM285.624 105.32C290.264 105.32 293.72 101.896 293.72 97C293.72 92.104 290.264 88.68 285.624 88.68C280.984 88.68 277.528 92.104 277.528 97C277.528 101.896 280.984 105.32 285.624 105.32ZM285.624 102.376C282.84 102.376 280.728 100.232 280.728 97C280.728 93.768 282.84 91.624 285.624 91.624C288.408 91.624 290.52 93.768 290.52 97C290.52 100.232 288.408 102.376 285.624 102.376ZM297.274 105H305.466C308.794 105 310.842 103.464 310.842 100.392C310.842 98.376 309.722 97.096 307.962 96.52C309.338 95.944 310.17 94.856 310.17 93.16C310.17 90.376 308.154 89 305.21 89H297.274V105ZM304.282 91.432C306.266 91.432 307.098 92.072 307.098 93.512C307.098 94.856 306.266 95.592 304.282 95.592H300.346V91.432H304.282ZM304.922 98.024C306.714 98.024 307.642 98.824 307.642 100.296C307.642 101.768 306.714 102.568 304.922 102.568H300.346V98.024H304.922ZM318.193 89H314.993V105H318.193V96.584L325.841 105H329.905L321.809 96.296L329.329 89H325.073L318.193 96.104V89ZM347.113 105V89H343.049L335.721 101.768V89H332.649V105H336.713L344.041 92.232V105H347.113ZM362.412 105V91.944H369.644V105H372.844V89H359.212V105H362.412ZM380.818 113V102.6C382.066 104.296 383.922 105.32 386.066 105.32C390.45 105.32 393.746 101.896 393.746 97C393.746 92.104 390.45 88.68 386.066 88.68C383.922 88.68 382.066 89.704 380.818 91.4V89H377.618V113H380.818ZM385.682 102.376C382.898 102.376 380.818 100.232 380.818 97C380.818 93.768 382.898 91.624 385.682 91.624C388.466 91.624 390.546 93.768 390.546 97C390.546 100.232 388.466 102.376 385.682 102.376ZM411.77 105V89H407.706L400.378 101.768V89H397.306V105H401.37L408.698 92.232V105H411.77ZM419.693 105V98.376H427.373V105H430.573V89H427.373V95.464H419.693V89H416.493V105H419.693ZM449.802 98.088C449.833 97.736 449.866 97.384 449.866 97C449.866 92.104 446.538 88.68 441.994 88.68C437.45 88.68 434.122 92.104 434.122 97C434.122 101.896 437.45 105.32 441.994 105.32C445.674 105.32 448.458 103.496 449.45 100.2H445.994C445.354 101.64 444.074 102.504 442.122 102.504C439.434 102.504 437.641 100.872 437.258 98.088H449.802ZM441.994 91.496C444.554 91.496 446.314 93.096 446.698 95.784H437.29C437.674 93.096 439.402 91.496 441.994 91.496ZM464.791 95.368H468.119C467.735 91.368 464.439 88.68 460.215 88.68C455.639 88.68 452.247 92.104 452.247 97C452.247 101.896 455.639 105.32 460.215 105.32C464.567 105.32 467.927 102.504 468.183 98.28H464.855C464.535 100.936 462.551 102.376 460.215 102.376C457.495 102.376 455.447 100.232 455.447 97C455.447 93.768 457.495 91.624 460.215 91.624C462.519 91.624 464.471 92.936 464.791 95.368ZM478.911 106.792L485.215 89H482.015L477.407 102.408L472.767 89H469.567L475.903 106.76C474.879 109.256 473.791 110.44 471.775 110.44C471.007 110.44 470.271 110.28 469.663 110.088V112.904C470.271 113.096 471.167 113.256 472.063 113.256C475.999 113.256 477.567 110.6 478.911 106.792ZM494.554 105V91.944H499.738V89L486.17 89V91.944L491.354 91.944V105H494.554ZM514.024 95.656V98.056H516.552C518.376 98.056 519.496 98.888 519.496 100.392C519.496 101.768 518.504 102.792 516.008 102.792C513.384 102.792 512.072 101.512 512.072 99.336H508.872C508.872 103.144 511.496 105.32 515.976 105.32C520.36 105.32 522.696 103.496 522.696 100.488C522.696 98.696 521.736 97.48 519.944 96.872C521.512 96.2 522.312 94.824 522.312 93.256C522.312 90.76 520.232 88.68 515.976 88.68C511.464 88.68 509.128 91.304 509.128 94.44H512.328C512.328 92.392 513.64 91.24 515.976 91.24C518.184 91.24 519.24 92.168 519.24 93.512C519.24 94.92 518.312 95.656 516.552 95.656H514.024ZM524.795 102.056V109.32H527.739V105H539.483V109.32H542.427V102.056H540.187V89H527.867C527.803 98.376 527.163 100.552 526.363 102.056H524.795ZM530.427 98.248C530.619 96.808 530.747 94.824 530.779 91.944H536.987V102.056H529.595C529.915 101.256 530.171 100.104 530.427 98.248ZM552.561 105.32C557.201 105.32 560.657 101.896 560.657 97C560.657 92.104 557.201 88.68 552.561 88.68C547.921 88.68 544.465 92.104 544.465 97C544.465 101.896 547.921 105.32 552.561 105.32ZM552.561 102.376C549.777 102.376 547.665 100.232 547.665 97C547.665 93.768 549.777 91.624 552.561 91.624C555.345 91.624 557.457 93.768 557.457 97C557.457 100.232 555.345 102.376 552.561 102.376ZM567.412 113V102.6C568.66 104.296 570.516 105.32 572.66 105.32C577.044 105.32 580.34 101.896 580.34 97C580.34 92.104 577.044 88.68 572.66 88.68C570.516 88.68 568.66 89.704 567.412 91.4V89H564.212V113H567.412ZM572.276 102.376C569.492 102.376 567.412 100.232 567.412 97C567.412 93.768 569.492 91.624 572.276 91.624C575.06 91.624 577.14 93.768 577.14 97C577.14 100.232 575.06 102.376 572.276 102.376ZM590.811 105.32C595.451 105.32 598.907 101.896 598.907 97C598.907 92.104 595.451 88.68 590.811 88.68C586.171 88.68 582.715 92.104 582.715 97C582.715 101.896 586.171 105.32 590.811 105.32ZM590.811 102.376C588.027 102.376 585.915 100.232 585.915 97C585.915 93.768 588.027 91.624 590.811 91.624C593.595 91.624 595.707 93.768 595.707 97C595.707 100.232 593.595 102.376 590.811 102.376ZM602.462 105H610.654C613.982 105 616.03 103.464 616.03 100.392C616.03 98.376 614.91 97.096 613.15 96.52C614.526 95.944 615.358 94.856 615.358 93.16C615.358 90.376 613.342 89 610.398 89H602.462V105ZM609.47 91.432C611.454 91.432 612.286 92.072 612.286 93.512C612.286 94.856 611.454 95.592 609.47 95.592H605.534V91.432H609.47ZM610.11 98.024C611.902 98.024 612.83 98.824 612.83 100.296C612.83 101.768 611.902 102.568 610.11 102.568H605.534V98.024H610.11ZM633.077 99.624C633.077 96.456 630.805 94.28 626.933 94.28H623.381V89H620.181V105H626.965C630.965 105 633.077 102.792 633.077 99.624ZM626.677 96.968C628.853 96.968 629.877 97.832 629.877 99.592C629.877 101.32 628.853 102.312 626.677 102.312H623.381V96.968H626.677ZM650.989 98.088C651.021 97.736 651.053 97.384 651.053 97C651.053 92.104 647.725 88.68 643.181 88.68C638.637 88.68 635.309 92.104 635.309 97C635.309 101.896 638.637 105.32 643.181 105.32C646.861 105.32 649.645 103.496 650.637 100.2H647.181C646.541 101.64 645.261 102.504 643.309 102.504C640.621 102.504 638.829 100.872 638.445 98.088H650.989ZM643.181 91.496C645.741 91.496 647.501 93.096 647.885 95.784H638.477C638.861 93.096 640.589 91.496 643.181 91.496ZM676.457 105V89H672.393L665.065 101.768V89H661.993V105H666.057L673.385 92.232V105H676.457ZM691.756 113V102.6C693.004 104.296 694.86 105.32 697.004 105.32C701.388 105.32 704.684 101.896 704.684 97C704.684 92.104 701.388 88.68 697.004 88.68C694.86 88.68 693.004 89.704 691.756 91.4V89H688.556V113H691.756ZM696.62 102.376C693.836 102.376 691.756 100.232 691.756 97C691.756 93.768 693.836 91.624 696.62 91.624C699.404 91.624 701.484 93.768 701.484 97C701.484 100.232 699.404 102.376 696.62 102.376ZM712.851 105.32C715.155 105.32 717.203 104.424 718.259 102.312V105H721.395V93.8C721.395 90.088 718.195 88.68 714.739 88.68C711.219 88.68 707.891 90.248 707.891 94.376H711.219C711.219 92.296 712.659 91.24 714.739 91.24C716.691 91.24 718.195 92.104 718.195 93.672C718.195 97.32 707.411 93.864 707.411 100.776C707.411 103.944 710.003 105.32 712.851 105.32ZM710.675 100.584C710.675 97.896 715.539 98.568 718.259 97.256V98.408C718.259 101.192 715.955 102.632 713.491 102.632C711.859 102.632 710.675 101.96 710.675 100.584ZM724.139 102.056V109.32H727.083V105H738.827V109.32H741.771V102.056H739.531V89H727.211C727.147 98.376 726.507 100.552 725.707 102.056H724.139ZM729.771 98.248C729.963 96.808 730.091 94.824 730.123 91.944H736.331V102.056H728.939C729.259 101.256 729.515 100.104 729.771 98.248ZM751.905 105.32C756.545 105.32 760.001 101.896 760.001 97C760.001 92.104 756.545 88.68 751.905 88.68C747.265 88.68 743.809 92.104 743.809 97C743.809 101.896 747.265 105.32 751.905 105.32ZM751.905 102.376C749.121 102.376 747.009 100.232 747.009 97C747.009 93.768 749.121 91.624 751.905 91.624C754.689 91.624 756.801 93.768 756.801 97C756.801 100.232 754.689 102.376 751.905 102.376ZM774.916 95.368H778.244C777.86 91.368 774.564 88.68 770.34 88.68C765.764 88.68 762.372 92.104 762.372 97C762.372 101.896 765.764 105.32 770.34 105.32C774.692 105.32 778.052 102.504 778.308 98.28H774.98C774.66 100.936 772.676 102.376 770.34 102.376C767.62 102.376 765.572 100.232 765.572 97C765.572 93.768 767.62 91.624 770.34 91.624C772.644 91.624 774.596 92.936 774.916 95.368ZM787.866 105V91.944H793.05V89H779.482V91.944H784.666V105H787.866ZM808.889 99.624C808.889 96.456 806.617 94.28 802.745 94.28H799.193V89H795.993V105H802.777C806.777 105 808.889 102.792 808.889 99.624ZM802.489 96.968C804.665 96.968 805.689 97.832 805.689 99.592C805.689 101.32 804.665 102.312 802.489 102.312H799.193V96.968H802.489ZM815.506 97L815.762 81H812.306L812.562 97H815.506ZM814.034 105.32C815.154 105.32 816.018 104.392 816.018 103.336C816.018 102.248 815.154 101.32 814.034 101.32C812.946 101.32 812.018 102.248 812.018 103.336C812.018 104.392 812.946 105.32 814.034 105.32Z" fill="black"/>
</svg>
